<?xml version="1.0" encoding="UTF-8" standalone="no"?>
<!-- Created with Inkscape (http://www.inkscape.org/) -->

<svg
   width="217.06677"
   height="253.74692"
   viewBox="0 0 108.53339 126.87346"
   version="1.1"
   id="svg1"
   xml:space="preserve"
   inkscape:version="1.3.2 (091e20ef0f, 2023-11-25)"
   sodipodi:docname="logo.svg"
   xmlns:inkscape="http://www.inkscape.org/namespaces/inkscape"
   xmlns:sodipodi="http://sodipodi.sourceforge.net/DTD/sodipodi-0.dtd"
   xmlns:xlink="http://www.w3.org/1999/xlink"
   xmlns="http://www.w3.org/2000/svg"
   xmlns:svg="http://www.w3.org/2000/svg"><sodipodi:namedview
     id="namedview1"
     pagecolor="#ffffff"
     bordercolor="#000000"
     borderopacity="0.25"
     inkscape:showpageshadow="2"
     inkscape:pageopacity="0.0"
     inkscape:pagecheckerboard="true"
     inkscape:deskcolor="#d1d1d1"
     inkscape:document-units="px"
     inkscape:zoom="0.5"
     inkscape:cx="133"
     inkscape:cy="263"
     inkscape:window-width="1920"
     inkscape:window-height="1011"
     inkscape:window-x="0"
     inkscape:window-y="0"
     inkscape:window-maximized="1"
     inkscape:current-layer="layer1"
     showborder="false" /><defs
     id="defs1"><linearGradient
       id="linearGradient82"><stop
         style="stop-color:#217fb7;stop-opacity:1;"
         offset="0"
         id="stop81" /><stop
         style="stop-color:#17496c;stop-opacity:1;"
         offset="1"
         id="stop82" /></linearGradient><linearGradient
       id="linearGradient75"><stop
         style="stop-color:#000000;stop-opacity:1;"
         offset="0"
         id="stop79" /><stop
         style="stop-color:#000000;stop-opacity:0;"
         offset="1"
         id="stop80" /></linearGradient><linearGradient
       id="linearGradient75-1"><stop
         style="stop-color:#000000;stop-opacity:1;"
         offset="0"
         id="stop75" /><stop
         style="stop-color:#000000;stop-opacity:0;"
         offset="1"
         id="stop76" /></linearGradient><inkscape:path-effect
       effect="spiro"
       id="path-effect16"
       is_visible="true"
       lpeversion="1" /><linearGradient
       id="linearGradient14"
       inkscape:collect="always"><stop
         style="stop-color:#248fcf;stop-opacity:1;"
         offset="0"
         id="stop14" /><stop
         style="stop-color:#1f6fa0;stop-opacity:1;"
         offset="0.5"
         id="stop16" /><stop
         style="stop-color:#1d6692;stop-opacity:1;"
         offset="1"
         id="stop15" /></linearGradient><linearGradient
       id="linearGradient11"
       inkscape:collect="always"><stop
         style="stop-color:#818485;stop-opacity:1;"
         offset="0"
         id="stop11" /><stop
         style="stop-color:#535454;stop-opacity:1;"
         offset="1"
         id="stop12" /></linearGradient><linearGradient
       id="linearGradient8"
       inkscape:collect="always"><stop
         style="stop-color:#cea380;stop-opacity:1;"
         offset="0"
         id="stop9" /><stop
         style="stop-color:#d1ae90;stop-opacity:1;"
         offset="1"
         id="stop10" /></linearGradient><linearGradient
       id="linearGradient6"
       inkscape:collect="always"><stop
         style="stop-color:#e2c4ac;stop-opacity:1;"
         offset="0"
         id="stop6" /><stop
         style="stop-color:#aa8a7f;stop-opacity:1;"
         offset="0.5"
         id="stop8" /><stop
         style="stop-color:#d9c6b5;stop-opacity:1;"
         offset="1"
         id="stop7" /></linearGradient><linearGradient
       id="linearGradient2"
       inkscape:collect="always"><stop
         style="stop-color:#a46c53;stop-opacity:1;"
         offset="0"
         id="stop2" /><stop
         style="stop-color:#dcbea6;stop-opacity:1;"
         offset="1"
         id="stop3" /></linearGradient><linearGradient
       inkscape:collect="always"
       xlink:href="#linearGradient2"
       id="linearGradient3"
       x1="45.709038"
       y1="50.596504"
       x2="120.43719"
       y2="50.596504"
       gradientUnits="userSpaceOnUse"
       gradientTransform="translate(-0.21041339,0.06989741)" /><linearGradient
       inkscape:collect="always"
       xlink:href="#linearGradient6"
       id="linearGradient7"
       x1="46.899136"
       y1="121.65613"
       x2="117.82142"
       y2="121.65613"
       gradientUnits="userSpaceOnUse"
       gradientTransform="translate(-0.74437355,20.477118)" /><linearGradient
       inkscape:collect="always"
       xlink:href="#linearGradient8"
       id="linearGradient10"
       x1="45.704391"
       y1="158.58916"
       x2="116.64866"
       y2="158.58916"
       gradientUnits="userSpaceOnUse"
       gradientTransform="translate(0.28139193,-9.3727654)" /><linearGradient
       inkscape:collect="always"
       xlink:href="#linearGradient11"
       id="linearGradient12"
       x1="83.115692"
       y1="113.75079"
       x2="84.861748"
       y2="114.96295"
       gradientUnits="userSpaceOnUse" /><linearGradient
       inkscape:collect="always"
       xlink:href="#linearGradient14"
       id="linearGradient15"
       x1="54.069767"
       y1="100.1262"
       x2="110.40364"
       y2="100.1262"
       gradientUnits="userSpaceOnUse" /><linearGradient
       inkscape:collect="always"
       xlink:href="#linearGradient82"
       id="linearGradient76"
       x1="54.368454"
       y1="75.381737"
       x2="109.95542"
       y2="75.381737"
       gradientUnits="userSpaceOnUse" /><linearGradient
       inkscape:collect="always"
       xlink:href="#linearGradient82"
       id="linearGradient77"
       x1="54.220009"
       y1="96.42321"
       x2="109.3404"
       y2="96.42321"
       gradientUnits="userSpaceOnUse" /><linearGradient
       inkscape:collect="always"
       xlink:href="#linearGradient82"
       id="linearGradient78"
       x1="53.638851"
       y1="120.51554"
       x2="109.19592"
       y2="120.51554"
       gradientUnits="userSpaceOnUse" /><linearGradient
       inkscape:collect="always"
       xlink:href="#linearGradient82"
       id="linearGradient83"
       gradientUnits="userSpaceOnUse"
       x1="53.638851"
       y1="120.51554"
       x2="109.19592"
       y2="120.51554" /><linearGradient
       inkscape:collect="always"
       xlink:href="#linearGradient82"
       id="linearGradient84"
       gradientUnits="userSpaceOnUse"
       x1="53.638851"
       y1="120.51554"
       x2="109.19592"
       y2="120.51554" /><linearGradient
       inkscape:collect="always"
       xlink:href="#linearGradient82"
       id="linearGradient85"
       gradientUnits="userSpaceOnUse"
       x1="53.638851"
       y1="120.51554"
       x2="109.19592"
       y2="120.51554" /><linearGradient
       inkscape:collect="always"
       xlink:href="#linearGradient82"
       id="linearGradient86"
       gradientUnits="userSpaceOnUse"
       x1="53.638851"
       y1="120.51554"
       x2="109.19592"
       y2="120.51554" /><linearGradient
       inkscape:collect="always"
       xlink:href="#linearGradient82"
       id="linearGradient87"
       gradientUnits="userSpaceOnUse"
       x1="53.638851"
       y1="120.51554"
       x2="109.19592"
       y2="120.51554" /><linearGradient
       inkscape:collect="always"
       xlink:href="#linearGradient82"
       id="linearGradient88"
       gradientUnits="userSpaceOnUse"
       x1="53.638851"
       y1="120.51554"
       x2="109.19592"
       y2="120.51554" /><linearGradient
       inkscape:collect="always"
       xlink:href="#linearGradient82"
       id="linearGradient89"
       gradientUnits="userSpaceOnUse"
       x1="53.638851"
       y1="120.51554"
       x2="109.19592"
       y2="120.51554" /><linearGradient
       inkscape:collect="always"
       xlink:href="#linearGradient82"
       id="linearGradient90"
       gradientUnits="userSpaceOnUse"
       x1="53.638851"
       y1="120.51554"
       x2="109.19592"
       y2="120.51554" /><linearGradient
       inkscape:collect="always"
       xlink:href="#linearGradient82"
       id="linearGradient91"
       gradientUnits="userSpaceOnUse"
       x1="53.638851"
       y1="120.51554"
       x2="109.19592"
       y2="120.51554" /><linearGradient
       inkscape:collect="always"
       xlink:href="#linearGradient82"
       id="linearGradient92"
       gradientUnits="userSpaceOnUse"
       x1="53.638851"
       y1="120.51554"
       x2="109.19592"
       y2="120.51554" /><linearGradient
       inkscape:collect="always"
       xlink:href="#linearGradient82"
       id="linearGradient93"
       gradientUnits="userSpaceOnUse"
       x1="53.638851"
       y1="120.51554"
       x2="109.19592"
       y2="120.51554" /><linearGradient
       inkscape:collect="always"
       xlink:href="#linearGradient82"
       id="linearGradient94"
       gradientUnits="userSpaceOnUse"
       x1="54.368454"
       y1="75.381737"
       x2="109.95542"
       y2="75.381737" /><linearGradient
       inkscape:collect="always"
       xlink:href="#linearGradient82"
       id="linearGradient95"
       gradientUnits="userSpaceOnUse"
       x1="54.368454"
       y1="75.381737"
       x2="109.95542"
       y2="75.381737" /><linearGradient
       inkscape:collect="always"
       xlink:href="#linearGradient82"
       id="linearGradient96"
       gradientUnits="userSpaceOnUse"
       x1="54.368454"
       y1="75.381737"
       x2="109.95542"
       y2="75.381737" /><linearGradient
       inkscape:collect="always"
       xlink:href="#linearGradient82"
       id="linearGradient97"
       gradientUnits="userSpaceOnUse"
       x1="54.368454"
       y1="75.381737"
       x2="109.95542"
       y2="75.381737" /><linearGradient
       inkscape:collect="always"
       xlink:href="#linearGradient82"
       id="linearGradient98"
       gradientUnits="userSpaceOnUse"
       x1="54.368454"
       y1="75.381737"
       x2="109.95542"
       y2="75.381737" /><linearGradient
       inkscape:collect="always"
       xlink:href="#linearGradient82"
       id="linearGradient99"
       gradientUnits="userSpaceOnUse"
       x1="54.368454"
       y1="75.381737"
       x2="109.95542"
       y2="75.381737" /><linearGradient
       inkscape:collect="always"
       xlink:href="#linearGradient82"
       id="linearGradient100"
       gradientUnits="userSpaceOnUse"
       x1="54.368454"
       y1="75.381737"
       x2="109.95542"
       y2="75.381737" /><linearGradient
       inkscape:collect="always"
       xlink:href="#linearGradient82"
       id="linearGradient101"
       gradientUnits="userSpaceOnUse"
       x1="54.368454"
       y1="75.381737"
       x2="109.95542"
       y2="75.381737" /><linearGradient
       inkscape:collect="always"
       xlink:href="#linearGradient82"
       id="linearGradient102"
       gradientUnits="userSpaceOnUse"
       x1="54.368454"
       y1="75.381737"
       x2="109.95542"
       y2="75.381737" /><linearGradient
       inkscape:collect="always"
       xlink:href="#linearGradient82"
       id="linearGradient103"
       gradientUnits="userSpaceOnUse"
       x1="54.368454"
       y1="75.381737"
       x2="109.95542"
       y2="75.381737" /><linearGradient
       inkscape:collect="always"
       xlink:href="#linearGradient82"
       id="linearGradient104"
       gradientUnits="userSpaceOnUse"
       x1="54.368454"
       y1="75.381737"
       x2="109.95542"
       y2="75.381737" /><linearGradient
       inkscape:collect="always"
       xlink:href="#linearGradient82"
       id="linearGradient105"
       gradientUnits="userSpaceOnUse"
       x1="54.220009"
       y1="96.42321"
       x2="109.3404"
       y2="96.42321" /><linearGradient
       inkscape:collect="always"
       xlink:href="#linearGradient82"
       id="linearGradient106"
       gradientUnits="userSpaceOnUse"
       x1="54.220009"
       y1="96.42321"
       x2="109.3404"
       y2="96.42321" /><linearGradient
       inkscape:collect="always"
       xlink:href="#linearGradient82"
       id="linearGradient107"
       gradientUnits="userSpaceOnUse"
       x1="54.220009"
       y1="96.42321"
       x2="109.3404"
       y2="96.42321" /><linearGradient
       inkscape:collect="always"
       xlink:href="#linearGradient82"
       id="linearGradient108"
       gradientUnits="userSpaceOnUse"
       x1="54.220009"
       y1="96.42321"
       x2="109.3404"
       y2="96.42321" /><linearGradient
       inkscape:collect="always"
       xlink:href="#linearGradient82"
       id="linearGradient109"
       gradientUnits="userSpaceOnUse"
       x1="54.220009"
       y1="96.42321"
       x2="109.3404"
       y2="96.42321" /><linearGradient
       inkscape:collect="always"
       xlink:href="#linearGradient82"
       id="linearGradient110"
       gradientUnits="userSpaceOnUse"
       x1="54.220009"
       y1="96.42321"
       x2="109.3404"
       y2="96.42321" /><linearGradient
       inkscape:collect="always"
       xlink:href="#linearGradient82"
       id="linearGradient111"
       gradientUnits="userSpaceOnUse"
       x1="54.220009"
       y1="96.42321"
       x2="109.3404"
       y2="96.42321" /><filter
       style="color-interpolation-filters:sRGB"
       inkscape:label="Drop Shadow"
       id="filter134"
       x="-0.08968463"
       y="-0.23069649"
       width="1.1793693"
       height="1.461393"><feFlood
         result="flood"
         in="SourceGraphic"
         flood-opacity="1.000000"
         flood-color="rgb(0,0,0)"
         id="feFlood133" /><feGaussianBlur
         result="blur"
         in="SourceGraphic"
         stdDeviation="2.641018"
         id="feGaussianBlur133" /><feOffset
         result="offset"
         in="blur"
         dx="0.000000"
         dy="0.000000"
         id="feOffset133" /><feComposite
         result="comp1"
         operator="in"
         in="flood"
         in2="offset"
         id="feComposite133" /><feComposite
         result="comp2"
         operator="over"
         in="SourceGraphic"
         in2="comp1"
         id="feComposite134" /></filter></defs><g
     inkscape:label="Layer 1"
     inkscape:groupmode="layer"
     id="layer1"
     transform="translate(-40.147813,-37.602034)"><ellipse
       style="fill:#ab775e;fill-opacity:1;stroke:none;stroke-width:2.289;stroke-linecap:round;stroke-dasharray:none;stroke-opacity:1;filter:url(#filter134)"
       id="path113"
       cx="81.823654"
       cy="146.00345"
       rx="35.337399"
       ry="13.737623"
       inkscape:label="shadow"
       transform="matrix(0.991784,0,0,0.96005139,0.32985447,5.0306244)" /><path
       style="fill:none;fill-opacity:1;stroke:#16557b;stroke-width:0.79375;stroke-dasharray:none;stroke-opacity:1"
       d="m 105.44055,62.767155 c 4.84224,-0.542799 9.56168,-2.155168 13.72381,-4.688659 2.98101,-1.814543 5.69333,-4.100897 8.88352,-5.515715 2.28335,-1.012642 4.85235,-1.552834 7.2978,-1.044018 1.47564,0.30703 2.85707,0.985292 4.09311,1.847828 1.23604,0.862536 2.33437,1.907615 3.3718,3.001005 2.46786,2.600976 4.6854,5.647974 5.29358,9.181464 0.42318,2.45867 0.0365,4.984171 -0.51796,7.416591 -0.7838,3.438258 -1.90437,6.800962 -3.36297,10.011639 -1.03287,2.273555 -2.27259,4.51895 -4.14196,6.174643 -1.39237,1.233219 -3.09523,2.103274 -4.36914,3.458519 -0.97142,1.033441 -1.65041,2.305284 -2.2351,3.59749 -0.58468,1.292206 -1.08817,2.623858 -1.76785,3.868728 -2.04942,3.75364 -5.6318,6.52476 -9.59019,8.14374 -2.47111,1.01068 -5.09063,1.60519 -7.71069,2.11813 -2.30783,0.45181 -4.62737,0.84383 -6.9555,1.17553"
       id="path16"
       sodipodi:nodetypes="caaaaaaaaaaaac"
       inkscape:original-d="m 105.44055,62.767155 c 2.73286,-2.002285 9.35506,-2.618972 13.72381,-4.688659 3.14992,-1.492269 5.60796,-4.324243 8.88352,-5.515715 2.30934,-0.840011 4.89806,-1.573048 7.2978,-1.044018 2.89758,0.638778 5.42321,2.695821 7.46491,4.848833 2.43087,2.563399 4.49977,5.73908 5.29358,9.181464 0.55686,2.414845 -0.0332,4.986255 -0.51796,7.416591 -0.68869,3.452436 -1.80808,6.85317 -3.36297,10.011639 -1.09464,2.223559 -2.45979,4.354545 -4.14196,6.174643 -1.26071,1.364077 -3.17728,2.0339 -4.36914,3.458519 -1.812,2.165846 -2.2285,5.269499 -4.00295,7.466218 -2.63528,3.26241 -5.88209,6.18465 -9.59019,8.14374 -2.35674,1.24513 -5.10819,1.54229 -7.71069,2.11813 -2.29585,0.50799 -4.59079,1.17978 -6.9555,1.17553"
       inkscape:path-effect="#path-effect16"
       inkscape:label="thread" /><path
       style="fill:#c29d83;fill-opacity:1;stroke-width:0.264583"
       d="M 45.881297,54.156236 84.083248,83.533724 120.19471,53.818638 Z"
       id="path3"
       sodipodi:nodetypes="cccc"
       inkscape:label="top conic" /><path
       style="fill:url(#linearGradient3);stroke-width:0.264583"
       d="m 120.10571,43.291124 -0.11569,10.568228 c 0,0 -1.27215,4.694398 -38.108612,4.900041 C 45.65283,58.961642 45.737859,53.657586 45.737859,53.657586 L 45.498622,42.699514 Z"
       id="path2"
       sodipodi:nodetypes="ccsccc"
       inkscape:label="top" /><ellipse
       style="fill:#f6e6d9;fill-opacity:1;stroke-width:0.253635"
       id="path1"
       cx="82.835152"
       cy="42.847237"
       rx="37.370003"
       ry="5.245203"
       inkscape:label="top" /><path
       style="display:inline;fill:url(#linearGradient7);stroke-width:0.264583"
       d="m 82.182298,108.05271 -36.498443,30.07867 0.735176,5.29566 c 0,0 8.440361,11.33803 35.357933,11.01931 26.917566,-0.31872 34.746956,-11.03018 34.746956,-11.03018 l 0.4699,-5.80399 z"
       id="path5"
       sodipodi:nodetypes="ccczccc"
       inkscape:label="bottom conic" /><path
       style="display:inline;fill:url(#linearGradient10);stroke-width:0.264583"
       d="m 45.985783,139.75486 c 0,0 -0.01199,11.92409 35.480964,11.72659 35.492953,-0.1975 35.463303,-11.84116 35.463303,-11.84116 l -0.21654,5.62748 c 0,0 0.0606,13.42311 -35.522029,13.5241 -35.582618,0.10099 -34.50528,-12.57292 -34.50528,-12.57292 z"
       id="path4"
       sodipodi:nodetypes="czcczcc"
       inkscape:label="bottom" /><path
       style="display:inline;fill:url(#linearGradient15);fill-opacity:1;stroke-width:0.264583"
       d="m 54.901332,60.566641 c 0,0 0.05645,4.380846 27.403466,4.401387 27.347012,0.02054 28.098842,-3.506409 28.098842,-3.506409 l -2.00326,69.581261 c 0,0 1.29629,8.41937 -26.106392,8.63849 -27.402683,0.21912 -28.224221,-7.84799 -28.224221,-7.84799 z"
       id="path10"
       sodipodi:nodetypes="czcczcc"
       inkscape:label="body" /><g
       id="g54"
       style="fill:none;fill-opacity:1;stroke:url(#linearGradient78);stroke-width:1.5875;stroke-dasharray:none"
       inkscape:label="lower threads"><path
         style="fill:none;fill-opacity:1;stroke:url(#linearGradient83);stroke-width:1.5875;stroke-linecap:round;stroke-dasharray:none;stroke-opacity:1"
         d="m 54.572741,102.49476 c 0,0 4.842902,6.38846 28.177385,6.77141 23.334484,0.38296 26.445794,-6.07172 26.445794,-6.07172"
         id="path40"
         sodipodi:nodetypes="czc" /><path
         style="fill:none;fill-opacity:1;stroke:url(#linearGradient84);stroke-width:1.5875;stroke-linecap:round;stroke-dasharray:none;stroke-opacity:1"
         d="m 54.210643,105.04422 c 0,0 4.378119,6.76461 27.712602,7.14756 23.334485,0.38296 26.910575,-6.44787 26.910575,-6.44787"
         id="path41"
         sodipodi:nodetypes="czc" /><path
         style="fill:none;fill-opacity:1;stroke:url(#linearGradient85);stroke-width:1.5875;stroke-linecap:round;stroke-dasharray:none;stroke-opacity:1"
         d="m 54.198753,107.78464 c 0,0 5.2295,6.90585 28.563983,7.2888 23.334484,0.38296 26.059194,-6.58911 26.059194,-6.58911"
         id="path42"
         sodipodi:nodetypes="czc" /><path
         style="fill:none;fill-opacity:1;stroke:url(#linearGradient86);stroke-width:1.5875;stroke-linecap:round;stroke-dasharray:none;stroke-opacity:1"
         d="m 53.750183,111.09577 c 0,0 5.061242,7.67724 28.395725,8.06019 23.334482,0.38296 26.227452,-7.3605 26.227452,-7.3605"
         id="path43"
         sodipodi:nodetypes="czc" /><path
         style="fill:none;fill-opacity:1;stroke:url(#linearGradient87);stroke-width:1.5875;stroke-linecap:round;stroke-dasharray:none;stroke-opacity:1"
         d="m 53.751264,114.1954 c 0,0 5.353803,7.4254 28.688286,7.80835 23.33449,0.38296 25.93489,-7.10866 25.93489,-7.10866"
         id="path44"
         sodipodi:nodetypes="czc" /><path
         style="fill:none;fill-opacity:1;stroke:url(#linearGradient88);stroke-width:1.5875;stroke-linecap:round;stroke-dasharray:none;stroke-opacity:1"
         d="m 53.8435,117.44132 c 0,0 3.8456,6.49907 27.180083,6.88202 23.334487,0.38296 27.443097,-6.18233 27.443097,-6.18233"
         id="path45"
         sodipodi:nodetypes="czc" /><path
         style="fill:none;fill-opacity:1;stroke:url(#linearGradient89);stroke-width:1.5875;stroke-linecap:round;stroke-dasharray:none;stroke-opacity:1"
         d="m 53.798463,119.72993 c 0,0 5.276699,7.71796 28.611182,8.10091 23.334485,0.38296 26.011995,-7.40122 26.011995,-7.40122"
         id="path46"
         sodipodi:nodetypes="czc" /><path
         style="fill:none;fill-opacity:1;stroke:url(#linearGradient90);stroke-width:1.5875;stroke-linecap:round;stroke-dasharray:none;stroke-opacity:1"
         d="m 53.803147,122.30713 c 0,0 3.200308,7.72769 26.534791,8.11064 23.334482,0.38296 28.088382,-7.41095 28.088382,-7.41095"
         id="path47"
         sodipodi:nodetypes="czc" /><path
         style="fill:none;fill-opacity:1;stroke:url(#linearGradient91);stroke-width:1.5875;stroke-linecap:round;stroke-dasharray:none;stroke-opacity:1"
         d="m 53.726764,125.04611 c 0,0 4.649782,7.24056 27.984265,7.62351 23.334491,0.38296 26.638911,-6.92382 26.638911,-6.92382"
         id="path48"
         sodipodi:nodetypes="czc" /><path
         style="fill:none;fill-opacity:1;stroke:url(#linearGradient92);stroke-width:1.5875;stroke-linecap:round;stroke-dasharray:none;stroke-opacity:1"
         d="m 53.638852,128.13998 c 0,0 4.053131,7.56555 27.387614,7.9485 23.334484,0.38296 27.235564,-7.24881 27.235564,-7.24881"
         id="path49"
         sodipodi:nodetypes="czc" /><path
         style="fill:none;fill-opacity:1;stroke:url(#linearGradient93);stroke-width:1.5875;stroke-linecap:round;stroke-dasharray:none;stroke-opacity:1"
         d="m 53.711992,130.82203 c 0,0 4.209139,7.31695 27.543622,7.6999 23.334486,0.38296 27.079556,-7.00021 27.079556,-7.00021"
         id="path50"
         sodipodi:nodetypes="czc" /></g><g
       id="g52"
       style="fill:none;fill-opacity:1;stroke:url(#linearGradient76);stroke-width:1.5875;stroke-dasharray:none"
       inkscape:label="upper threads"><path
         style="fill:none;fill-opacity:1;stroke:url(#linearGradient94);stroke-width:1.5875;stroke-linecap:round;stroke-dasharray:none;stroke-opacity:1"
         d="m 55.090848,61.968195 c 0,0 3.887394,3.169936 27.221877,3.55289 23.334485,0.382954 27.401295,-2.853193 27.401295,-2.853193"
         id="path22"
         sodipodi:nodetypes="czc" /><path
         style="fill:none;fill-opacity:1;stroke:url(#linearGradient95);stroke-width:1.5875;stroke-linecap:round;stroke-dasharray:none;stroke-opacity:1"
         d="m 55.332247,63.881372 c 0,0 7.976044,3.640844 31.310527,4.023798 23.334486,0.382954 23.312646,-3.324101 23.312646,-3.324101"
         id="path23"
         sodipodi:nodetypes="czc" /><path
         style="fill:none;fill-opacity:1;stroke:url(#linearGradient96);stroke-width:1.5875;stroke-linecap:round;stroke-dasharray:none;stroke-opacity:1"
         d="m 55.260908,65.95416 c 0,0 6.899837,3.517262 30.23432,3.900216 23.334482,0.382954 24.388852,-3.200519 24.388852,-3.200519"
         id="path24"
         sodipodi:nodetypes="czc" /><path
         style="fill:none;fill-opacity:1;stroke:url(#linearGradient97);stroke-width:1.5875;stroke-linecap:round;stroke-dasharray:none;stroke-opacity:1"
         d="m 55.172996,67.94408 c 0,0 5.097632,3.728036 28.432115,4.11099 23.334479,0.382954 26.191059,-3.411293 26.191059,-3.411293"
         id="path25"
         sodipodi:nodetypes="czc" /><path
         style="fill:none;fill-opacity:1;stroke:url(#linearGradient98);stroke-width:1.5875;stroke-linecap:round;stroke-dasharray:none;stroke-opacity:1"
         d="m 55.08076,70.221877 c 0,0 6.080161,4.06059 29.414644,4.443544 23.334476,0.382954 25.208526,-3.743847 25.208526,-3.743847"
         id="path26"
         sodipodi:nodetypes="czc" /><path
         style="fill:none;fill-opacity:1;stroke:url(#linearGradient99);stroke-width:1.5875;stroke-linecap:round;stroke-dasharray:none;stroke-opacity:1"
         d="m 55.138408,72.775662 c 0,0 4.253456,3.609498 27.587939,3.992452 23.334483,0.382954 27.035233,-3.292755 27.035233,-3.292755"
         id="path27"
         sodipodi:nodetypes="czc" /><path
         style="fill:none;fill-opacity:1;stroke:url(#linearGradient100);stroke-width:1.5875;stroke-linecap:round;stroke-dasharray:none;stroke-opacity:1"
         d="m 54.662816,75.344219 c 0,0 6.778777,3.210649 30.11326,3.593603 23.334484,0.382954 24.509914,-2.893906 24.509914,-2.893906"
         id="path28"
         sodipodi:nodetypes="czc" /><path
         style="fill:none;fill-opacity:1;stroke:url(#linearGradient101);stroke-width:1.5875;stroke-linecap:round;stroke-dasharray:none;stroke-opacity:1"
         d="m 54.729831,77.488707 c 0,0 3.560244,3.305047 26.894727,3.688001 23.334492,0.382954 27.728452,-2.988304 27.728452,-2.988304"
         id="path29"
         sodipodi:nodetypes="czc" /><path
         style="fill:none;fill-opacity:1;stroke:url(#linearGradient102);stroke-width:1.5875;stroke-linecap:round;stroke-dasharray:none;stroke-opacity:1"
         d="m 54.677588,79.423141 c 0,0 6.592143,3.524828 29.926626,3.907782 23.334496,0.382954 24.696556,-3.208085 24.696556,-3.208085"
         id="path30"
         sodipodi:nodetypes="czc" /><path
         style="fill:none;fill-opacity:1;stroke:url(#linearGradient103);stroke-width:1.5875;stroke-linecap:round;stroke-dasharray:none;stroke-opacity:1"
         d="m 54.431865,81.885771 c 0,0 5.111323,3.851978 28.445806,4.234932 23.334499,0.382954 26.177379,-3.535235 26.177379,-3.535235"
         id="path31"
         sodipodi:nodetypes="czc" /><path
         style="fill:none;fill-opacity:1;stroke:url(#linearGradient104);stroke-width:1.5875;stroke-linecap:round;stroke-dasharray:none;stroke-opacity:1"
         d="m 54.368453,84.236709 c 0,0 5.334707,4.151024 28.66919,4.533978 23.334497,0.382954 25.953997,-3.834281 25.953997,-3.834281"
         id="path32"
         sodipodi:nodetypes="czc" /></g><g
       id="g51"
       style="display:inline"
       inkscape:label="needle"><path
         style="fill:url(#linearGradient12);stroke-width:0.264583"
         d="m 128.706,49.514892 -69.072349,97.760818 -5.438863,8.61614 6.912118,-7.43797 69.059564,-97.710015 c 0,0 0.44115,-1.245767 0.0392,-1.573979 -0.4019,-0.328211 -1.49971,0.345006 -1.49971,0.345006 z"
         id="path11"
         sodipodi:nodetypes="ccccczcc" /><ellipse
         style="fill:#c0c0c0;fill-opacity:1;stroke-width:0.15224"
         id="path12"
         ry="2.5756178"
         rx="0.98915052"
         cy="182.58125"
         cx="245.82237"
         transform="matrix(0.90737014,-0.42033252,-0.52195502,0.85297301,0,0)" /><path
         style="fill:none;fill-opacity:1;stroke:#16557b;stroke-width:0.79375;stroke-linecap:round;stroke-dasharray:none;stroke-opacity:1"
         d="m 130.74869,51.648695 c -1.35741,0.366228 -3.15493,1.077032 -3.15493,1.077032"
         id="path17"
         sodipodi:nodetypes="cc" /></g><g
       id="g53"
       style="fill:none;fill-opacity:1;stroke:url(#linearGradient77);stroke-width:1.5875;stroke-dasharray:none"
       inkscape:label="over threads"><path
         style="fill:none;fill-opacity:1;stroke:url(#linearGradient105);stroke-width:1.5875;stroke-linecap:round;stroke-dasharray:none;stroke-opacity:1"
         d="m 54.260003,99.955385 c 0,0 4.460627,5.549335 27.79511,5.932285 23.334487,0.38296 26.828067,-5.23259 26.828067,-5.23259"
         id="path39"
         sodipodi:nodetypes="czc" /><path
         style="fill:none;fill-opacity:1;stroke:url(#linearGradient106);stroke-width:1.5875;stroke-linecap:round;stroke-dasharray:none;stroke-opacity:1"
         d="m 54.262525,97.333864 c 0,0 5.292913,5.647696 28.627396,6.030646 23.334489,0.38296 25.995779,-5.330949 25.995779,-5.330949"
         id="path38"
         sodipodi:nodetypes="czc" /><path
         style="fill:none;fill-opacity:1;stroke:url(#linearGradient107);stroke-width:1.5875;stroke-linecap:round;stroke-dasharray:none;stroke-opacity:1"
         d="m 54.414931,95.408797 c 0,0 4.601863,4.908013 27.936346,5.290963 23.334493,0.38295 26.686833,-4.591266 26.686833,-4.591266"
         id="path37"
         sodipodi:nodetypes="czc" /><path
         style="fill:none;fill-opacity:1;stroke:url(#linearGradient108);stroke-width:1.5875;stroke-linecap:round;stroke-dasharray:none;stroke-opacity:1"
         d="m 54.448078,93.482289 c 0,0 5.657533,4.466644 28.992016,4.849598 23.334496,0.382954 25.631166,-4.149901 25.631166,-4.149901"
         id="path36"
         sodipodi:nodetypes="czc" /><path
         style="fill:none;fill-opacity:1;stroke:url(#linearGradient109);stroke-width:1.5875;stroke-linecap:round;stroke-dasharray:none;stroke-opacity:1"
         d="m 54.71722,91.119822 c 0,0 4.47648,4.15787 27.810963,4.540824 C 105.86267,96.0436 109.3404,91.819519 109.3404,91.819519"
         id="path35"
         sodipodi:nodetypes="czc" /><path
         style="fill:none;fill-opacity:1;stroke:url(#linearGradient110);stroke-width:1.5875;stroke-linecap:round;stroke-dasharray:none;stroke-opacity:1"
         d="m 54.22001,89.016048 c 0,0 5.5934,3.925478 28.927883,4.308432 23.334487,0.382954 25.695297,-3.608735 25.695297,-3.608735"
         id="path34"
         sodipodi:nodetypes="czc" /><path
         style="fill:none;fill-opacity:1;stroke:url(#linearGradient111);stroke-width:1.5875;stroke-linecap:round;stroke-dasharray:none;stroke-opacity:1"
         d="m 54.360166,86.940017 c 0,0 4.714636,3.692366 28.049119,4.07532 23.334495,0.382954 26.574065,-3.375623 26.574065,-3.375623"
         id="path33"
         sodipodi:nodetypes="czc" /></g><ellipse
       style="fill:#ab775e;fill-opacity:1;stroke:none;stroke-width:1.5875;stroke-linecap:round;stroke-dasharray:none;stroke-opacity:1"
       id="path112"
       cx="84.88903"
       cy="42.060482"
       rx="9.1940832"
       ry="2.3397932" /></g></svg>
